<?xml version="1.0" encoding="UTF-8"?><svg id="a" xmlns="http://www.w3.org/2000/svg" viewBox="0 0 1429.964 179.06"><path d="M981.922,166.093c-6.631,2.718-12.826.634-18.262-2.562l-19.071-12.154-35.257-23.957c-.309,12.956-.118,25.53-1.276,38.37-.724,8.024-8.82,12.536-15.438,11.712-7.599-.946-13.477-6.253-13.651-14.65l-2.425-116.878c-3.926-.287-8.004-1.2-10.365-3.456-2.968-2.836-4.063-7.574-3.384-11.729,2.645-16.197,28.088-21.9,40.094-12.953,28.926-1.292,70.923,4.195,86.993,31.806,7.269,14.506,5.001,31.208-5.507,43.711-10.941,13.019-25.315,20.299-42.091,26.263l41.685,26.549c3.605,2.296,5.346,6.769,5.174,10.641-.159,3.54-3.05,7.581-7.216,9.289h0l-.002-.002ZM956.712,80.263c7.976-10.641,4.967-25.247-7.029-32.002-11.918-6.712-25.837-8.287-40.403-7.642l-.147,63.324c19.077-3.153,36.348-8.695,47.578-23.679h0Z"/><path d="M465.775,163.485c-2.61-40.346-3.635-79.449-2.697-118.995.168-7.07,5.155-12.721,10.318-14.373,6.418-2.054,13.18-.338,17.54,5.091,6.183,7.701,11.552,15.781,17.191,23.967l12.735,18.488,24.392,36.553c1.768,2.649,3.635,5.184,5.959,8.261l-.249-55.095.923-24.557c.269-7.163,1.022-14.576,4.545-20.575,3.27-5.568,9.695-7.803,15.519-6.771,5.032.892,11.533,5.39,11.236,11.969l-2.564,56.862.925,79.716c.051,4.376-1.725,9.054-4.242,11.463-7.149,6.842-18.955,2.986-24.786-4.29-14.608-18.225-27.728-36.588-40.712-55.944l-19.387-28.903-.502,39.924c-.169,13.433.231,26.589-1.153,39.788-.661,6.298-7.536,9.231-12.625,8.971-5.176-.264-11.896-4.302-12.365-11.548h-.002v-.002Z"/><path d="M327.518,167.033c-11.523.113-24.343-9.897-34.67-17.008l-33.184-22.85-1.254,36.43c-.261,7.575-5.436,13.425-12.574,13.855-7.033.423-14.363-5.039-14.651-13.028l-1.614-44.865-1.25-72.441c-2.343-.887-5.556-2.244-6.55-3.84-4.654-7.473,2.064-13.531,6.988-18.116,4.192-3.904,6.156-8.732,11.668-10.433,6.287-1.942,11.572,1.979,16.75,3.754,16.488,1.004,32.85-.264,48.933,5.531,12.716,4.582,24.886,10.947,32.121,22.78,9.549,15.616,5.821,35.135-6.339,48.174-12.155,13.033-23.376,17.71-40.363,24.407l41.909,26.282c4.408,2.765,6.647,8.384,5.107,13.05-1.342,4.069-5.594,8.262-11.03,8.316h.001l.002.002ZM310.498,60.606c-5.306-18.409-34.292-21.389-50.641-18.851l-.594,62.063c20.205-1.082,58.264-18.828,51.235-43.212Z"/><path d="M1170.303,166.052c-12.263-5.083-22.105-14.665-27.785-26.228-14.883-30.299-6.655-66.966,11.236-92.397-4.126-.855-7.815-2.712-8.687-5.335-4.179-12.568,19.87-17.233,22.548-19.111,6.359-4.46,10.924-10.993,20.674-8.791,3.625.819,6.767,4.161,8.646,7.813,37.252,2.953,68.73,25.782,70.839,65.352,1.197,22.455-4.6,44.148-19.535,60.879-19.701,22.07-49.884,29.448-77.939,17.818h.003ZM1215.533,142.833c18.237-18.771,24.006-46.899,16.823-70.5-6.022-19.789-23.9-31.444-44.255-29.001-4.905,9.439-9.827,18.008-13.643,27.487-8.948,22.227-10.872,51.094,4.346,70.525,9.403,12.006,26.096,12.432,36.728,1.489h0Z"/><path d="M1049.113,170.83c-46.098-6.603-58.91-53.641-47.817-92.536,3.186-11.171,9.196-20.842,14.986-30.961-3.378-.495-7.171-2.487-7.944-5.144-3.541-12.153,14.687-15.938,23.068-18.829,2.747-2.17,6.255-6.483,9.491-7.951,7.925-3.592,15.525-.482,19.227,6.736,15.908,1.576,31.156,5.64,43.546,15.292,11.876,9.251,20.371,20.51,24.227,35.15,5.894,22.371,2.734,46.031-9.325,65.814-14.659,24.05-40.96,36.511-69.459,32.429h0,0ZM1074.587,146.061c25.665-18.658,33.65-70.082,7.693-93.543-8.327-7.527-19.087-9.914-30.573-9.379-13.923,23.839-25.678,46.993-20.128,75.738,1.952,10.107,6.071,19.333,13.636,25.941,8.627,7.535,19.804,8.197,29.37,1.244h.002Z"/><path d="M727.573,142.412l-10.074,25.779c-2.567,6.568-9.601,9.979-15.706,8.88-6.347-1.143-12.698-6.883-11.305-14.172l2.893-15.136c-2.128-1.606-4.693-3.438-5.734-5.199-4.071-6.894,5.742-15.47,14.255-17.594l17.992-44.886c7.855-19.597,15.573-38.502,24.653-57.384,3.01-6.26,10.535-9.393,16.615-8.911s11.997,5.447,13.69,12.178l15.387,61.169,20.002,74.492c1.262,4.7-1.712,10.917-4.443,13.403-3.722,3.388-9.376,4.611-14.49,2.995-5.887-1.862-9.981-7.37-11.646-13.239l-7.667-27.031-44.424,4.656h.002ZM767.27,116.219l-11.513-46.816c-.239-2.747-.911-2.809-1.079.064l-18.416,49.458,31.008-2.707h0,0Z"/><path d="M425.017,137.671l-44.509,4.776-10.087,26.458c-2.93,7.686-12.016,9.878-18.768,7.4-7.762-2.849-10.421-11.006-7.971-19.094,4.677-15.436,10.187-30.043,16.314-44.971l12.936-31.513c8.158-19.874,16.426-39.126,26.026-58.267,3.314-6.609,11.083-9.613,17.695-8.578,6.543,1.024,11.658,6.353,13.32,13.55l14.587,63.156,17.407,67.994c1.929,7.537-.254,15.993-7.723,19.037-7.965,3.247-17.613-1.639-20.724-9.873-3.651-9.661-5.729-18.938-8.503-30.076v.002h0ZM420.085,116.463l-11.178-48.302-19.619,51.248,30.798-2.946s-.001,0-.001,0Z"/><path d="M133.791,168.108c-3.144,7.982-11.544,10.825-18.117,8.68-19.498-6.361-1.807-31.584-3.811-39.717-1.834-7.44,3.617-5.999,5.392-10.145l35.159-82.107c3.4-7.94,7.16-14.837,11.174-22.337,3.269-6.107,9.762-9.79,16.682-8.743,6.136.929,12.138,5.977,13.699,13.417,9.492,45.275,19.922,89.656,31.857,134.497,1.247,4.686-.842,10.049-3.501,13.126-2.56,2.962-7.97,4.55-12.362,3.909-7.632-1.115-12.555-7.028-14.486-13.949l-7.494-26.868c-14.975.805-29.201,2.28-44.122,4.683l-10.067,25.552h-.002v.002ZM183.522,116.671l-10.528-48.438-20.228,51.198,30.755-2.76h0Z"/><path d="M651.202,155.227c-13.302,7.04-25.975,12.89-40.242,16.047-4.235.936-9.396-.716-12.224-3.282-2.922-2.651-3.351-7.131-3.448-11.808l-2.363-114.704c-5.129-1.195-7.921-5.276-6.138-10.208,1.508-4.173,5.464-7.251,8.709-10.37,7.259-6.977,17.46-8.614,25.526-2.01,27.769,2.56,52.535,16.271,68.565,38.601,4.785,6.667,7.52,13.374,9.167,21.264,7.266,34.826-18.797,61.253-47.553,76.471h0ZM654.508,121.568c9.379-10.88,15.869-24.799,13.127-39.139-4.041-21.133-21.474-36.934-42.586-41.651l.089,102.006c11.607-6.167,20.411-12.313,29.37-21.216h0Z"/><path d="M.79,45.384c-2.939-8.323,2.774-16.598,9.73-19.203,6.86-2.57,17.207-1.177,20.513,6.795,4.972,11.993,7.469,24.379,11.274,36.778l17.535,57.125L94.957,26.336c2.248-6.437,7.5-10.93,12.62-12.099,6.942-1.586,13.917-.145,18.075,5.304,4.066,5.33,3.228,12.223.594,18.495-17.522,41.73-34.093,83.122-49.478,125.707-2.701,7.477-7.886,12.708-15.384,13.162-6.897.418-15.401-3.547-18.124-11.254L.791,45.385h0Z"/><path d="M1320.942,80.753l-1.445,84.348c-.137,7.97-8.707,12.4-14.825,12.174-7.87-.292-14.287-6.038-14.457-14.382l-1.29-63.29-.505-79.212-40.64-.67c-4.743-.078-9.091-3.815-9.662-7.365-.75-4.656,1.717-9.552,6.923-10.957,5.561-1.501,11.628-1.376,17.847-1.387,33.687-.06,66.575.017,100.092,2.083,6.537.403,13.176,1.508,17.042,7.33,1.06,1.595.393,5.689-.806,6.982-1.199,1.293-4.583,3.47-6.52,3.49l-50.835.546-.92,60.312h0v-.002Z"/><path d="M1349.292,172.052c-7.951-3.418-12.171-11.092-9.292-18.39,2.794-7.08,11.313-7.822,17.293-4.448,14.849,8.376,33.821.969,36.191-11.695,4.118-21.997-29.608-32.693-46.019-54.835-10.665-14.388-7.324-32.225,5.688-43.914,22.545-20.253,60.98-20.621,59.985-6.369-.621,8.89-14.536,5.315-28.306,16.02-6.829,5.308-9.989,15.216-4.104,22.349,10.104,12.251,27.374,22.348,39.562,36.77,14.301,16.922,12.711,40.871-4.533,55.422-17.95,15.148-44.544,18.512-66.466,9.089h0Z"/></svg>